<?xml version="1.0" encoding="utf-8"?>
<!-- Generator: Adobe Illustrator 22.0.1, SVG Export Plug-In . SVG Version: 6.00 Build 0)  -->
<svg version="1.1" id="Layer_1" xmlns="http://www.w3.org/2000/svg" xmlns:xlink="http://www.w3.org/1999/xlink" x="0px" y="0px"
	 viewBox="0 0 512 512" style="enable-background:new 0 0 512 512;" xml:space="preserve">
<style type="text/css">
	.st0{fill:#B41E4D;}
</style>
<g>
	<g>
		<g>
			<path class="st0" d="M256,0C114.8,0,0,114.8,0,256s114.8,256,256,256s256-114.8,256-256S397.2,0,256,0z M256,490.7
				C126.6,490.7,21.3,385.4,21.3,256S126.6,21.3,256,21.3S490.7,126.6,490.7,256S385.4,490.7,256,490.7z"/>
			<path class="st0" d="M256,85.3c-5.9,0-10.7,4.8-10.7,10.7v256c0,5.9,4.8,10.7,10.7,10.7s10.7-4.8,10.7-10.7V96
				C266.7,90.1,261.9,85.3,256,85.3z"/>
			<circle class="st0" cx="256" cy="416" r="10.7"/>
		</g>
	</g>
</g>
</svg>
